<svg width="19" height="33" viewBox="0 0 19 33" fill="none" xmlns="http://www.w3.org/2000/svg">
<mask id="path-1-inside-1_192_24" fill="white">
<path d="M4.58887 22.9424H9.17676V27.5312H13.7656V32.1191H18.3545V0H13.7656V4.58887H9.17676L9.17773 9.17676H9.17676H4.58887V13.7656H0V18.3545H4.58887V22.9424Z"/>
</mask>
<path d="M4.58887 22.9424H9.17676V27.5312H13.7656V32.1191H18.3545V0H13.7656V4.58887H9.17676L9.17773 9.17676H9.17676H4.58887V13.7656H0V18.3545H4.58887V22.9424Z" fill="url(#paint0_linear_192_24)"/>
<path d="M4.58887 22.9424V23.9424H3.58887V22.9424H4.58887ZM9.17676 22.9424V21.9424H10.1768V22.9424H9.17676ZM9.17676 27.5312V28.5312H8.17676V27.5312H9.17676ZM13.7656 27.5312V26.5312H14.7656V27.5312H13.7656ZM13.7656 32.1191V33.1191H12.7656V32.1191H13.7656ZM18.3545 32.1191H19.3545V33.1191H18.3545V32.1191ZM18.3545 0V-1H19.3545V0H18.3545ZM13.7656 0H12.7656V-1H13.7656V0ZM13.7656 4.58887H14.7656V5.58887H13.7656V4.58887ZM9.17676 4.58887L8.17676 4.58908L8.17655 3.58887H9.17676V4.58887ZM9.17773 9.17676L10.1777 9.17655L10.1779 10.1768H9.17773V9.17676ZM4.58887 9.17676H3.58887V8.17676H4.58887V9.17676ZM4.58887 13.7656H5.58887V14.7656H4.58887V13.7656ZM0 13.7656H-1V12.7656H0V13.7656ZM0 18.3545V19.3545H-1V18.3545H0ZM4.58887 18.3545V17.3545H5.58887V18.3545H4.58887ZM4.58887 22.9424V21.9424H9.17676V22.9424V23.9424H4.58887V22.9424ZM9.17676 22.9424H10.1768V27.5312H9.17676H8.17676V22.9424H9.17676ZM9.17676 27.5312V26.5312H13.7656V27.5312V28.5312H9.17676V27.5312ZM13.7656 27.5312H14.7656V32.1191H13.7656H12.7656V27.5312H13.7656ZM13.7656 32.1191V31.1191H18.3545V32.1191V33.1191H13.7656V32.1191ZM18.3545 32.1191H17.3545V0H18.3545H19.3545V32.1191H18.3545ZM18.3545 0V1H13.7656V0V-1H18.3545V0ZM13.7656 0H14.7656V4.58887H13.7656H12.7656V0H13.7656ZM13.7656 4.58887V5.58887H9.17676V4.58887V3.58887H13.7656V4.58887ZM9.17676 4.58887L10.1768 4.58865L10.1777 9.17655L9.17773 9.17676L8.17773 9.17697L8.17676 4.58908L9.17676 4.58887ZM9.17773 9.17676V10.1768H9.17676V9.17676V8.17676H9.17773V9.17676ZM9.17676 9.17676V10.1768H4.58887V9.17676V8.17676H9.17676V9.17676ZM4.58887 9.17676H5.58887V13.7656H4.58887H3.58887V9.17676H4.58887ZM4.58887 13.7656V14.7656H0V13.7656V12.7656H4.58887V13.7656ZM0 13.7656H1V18.3545H0H-1V13.7656H0ZM0 18.3545V17.3545H4.58887V18.3545V19.3545H0V18.3545ZM4.58887 18.3545H5.58887V22.9424H4.58887H3.58887V18.3545H4.58887Z" fill="#636161" mask="url(#path-1-inside-1_192_24)"/>
<defs>
<linearGradient id="paint0_linear_192_24" x1="9.17724" y1="33.7477" x2="9.17724" y2="-3.76051e-06" gradientUnits="userSpaceOnUse">
<stop stop-color="#FF00B8"/>
<stop offset="1" stop-color="#FFC8F0"/>
</linearGradient>
</defs>
</svg>
