<svg width="19" height="33" viewBox="0 0 19 33" fill="none" xmlns="http://www.w3.org/2000/svg">
<mask id="path-1-inside-1_192_30" fill="white">
<path d="M13.7656 22.9424H9.17773V27.5312H4.58887V32.1191H0V0H4.58887V4.58887H9.17773L9.17676 9.17676H9.17773H13.7656V13.7656H18.3545V18.3545H13.7656V22.9424Z"/>
</mask>
<path d="M13.7656 22.9424H9.17773V27.5312H4.58887V32.1191H0V0H4.58887V4.58887H9.17773L9.17676 9.17676H9.17773H13.7656V13.7656H18.3545V18.3545H13.7656V22.9424Z" fill="url(#paint0_linear_192_30)"/>
<path d="M13.7656 22.9424V23.9424H14.7656V22.9424H13.7656ZM9.17773 22.9424V21.9424H8.17773V22.9424H9.17773ZM9.17773 27.5312V28.5312H10.1777V27.5312H9.17773ZM4.58887 27.5312V26.5312H3.58887V27.5312H4.58887ZM4.58887 32.1191V33.1191H5.58887V32.1191H4.58887ZM0 32.1191H-1V33.1191H0V32.1191ZM0 0V-1H-1V0H0ZM4.58887 0H5.58887V-1H4.58887V0ZM4.58887 4.58887H3.58887V5.58887H4.58887V4.58887ZM9.17773 4.58887L10.1777 4.58908L10.1779 3.58887H9.17773V4.58887ZM9.17676 9.17676L8.17676 9.17655L8.17655 10.1768H9.17676V9.17676ZM13.7656 9.17676H14.7656V8.17676H13.7656V9.17676ZM13.7656 13.7656H12.7656V14.7656H13.7656V13.7656ZM18.3545 13.7656H19.3545V12.7656H18.3545V13.7656ZM18.3545 18.3545V19.3545H19.3545V18.3545H18.3545ZM13.7656 18.3545V17.3545H12.7656V18.3545H13.7656ZM13.7656 22.9424V21.9424H9.17773V22.9424V23.9424H13.7656V22.9424ZM9.17773 22.9424H8.17773V27.5312H9.17773H10.1777V22.9424H9.17773ZM9.17773 27.5312V26.5312H4.58887V27.5312V28.5312H9.17773V27.5312ZM4.58887 27.5312H3.58887V32.1191H4.58887H5.58887V27.5312H4.58887ZM4.58887 32.1191V31.1191H0V32.1191V33.1191H4.58887V32.1191ZM0 32.1191H1V0H0H-1V32.1191H0ZM0 0V1H4.58887V0V-1H0V0ZM4.58887 0H3.58887V4.58887H4.58887H5.58887V0H4.58887ZM4.58887 4.58887V5.58887H9.17773V4.58887V3.58887H4.58887V4.58887ZM9.17773 4.58887L8.17773 4.58865L8.17676 9.17655L9.17676 9.17676L10.1768 9.17697L10.1777 4.58908L9.17773 4.58887ZM9.17676 9.17676V10.1768H9.17773V9.17676V8.17676H9.17676V9.17676ZM9.17773 9.17676V10.1768H13.7656V9.17676V8.17676H9.17773V9.17676ZM13.7656 9.17676H12.7656V13.7656H13.7656H14.7656V9.17676H13.7656ZM13.7656 13.7656V14.7656H18.3545V13.7656V12.7656H13.7656V13.7656ZM18.3545 13.7656H17.3545V18.3545H18.3545H19.3545V13.7656H18.3545ZM18.3545 18.3545V17.3545H13.7656V18.3545V19.3545H18.3545V18.3545ZM13.7656 18.3545H12.7656V22.9424H13.7656H14.7656V18.3545H13.7656Z" fill="#636161" mask="url(#path-1-inside-1_192_30)"/>
<defs>
<linearGradient id="paint0_linear_192_30" x1="9.17725" y1="33.7477" x2="9.17725" y2="-3.76051e-06" gradientUnits="userSpaceOnUse">
<stop stop-color="#FF00B8"/>
<stop offset="1" stop-color="#FFC8F0"/>
</linearGradient>
</defs>
</svg>
